<svg fill="currentColor" height="48" viewBox="0 0 48 48" width="48" xmlns="http://www.w3.org/2000/svg">
  <path d="m40.3504 21.9276c-1.5591 1.5591-4.0868 1.5591-5.6459 0s-1.5591-4.0869 0-5.646 4.0868-1.5591 5.6459 0 1.5591 4.0869 0 5.646z" />
  <path d="m40.3456 21.9272c-1.5591 1.5591-4.0869 1.559-5.646 0l-5.5757-5.5758c-1.5591-1.559-4.0869-1.559-5.646 0-1.5591 1.5591-1.5591 4.0869 0 5.646l5.5757 5.5757c1.5591 1.5591 4.0869 1.5591 5.646 0z" />
  <path d="m34.7003 27.5739c-1.5591 1.5591-4.0869 1.5591-5.6459 0l-10.8215-10.8215c-2.0788-2.0787-5.4491-2.0787-7.5279 0l-4.705 4.705c1.55909-1.5591 4.0869-1.5591 5.646 0l11.7624 11.7624c1.5591 1.5591 4.0869 1.5591 5.646 0z" />
</svg>
